# xmcd CD database file
#
# Track frame offsets:
#	150
#	13999
#	28431
#	40885
#	53788
#	71438
#	83942
#	95942
#	110473
#	120634
#	142087
#	157975
#	173134
#
# Disc length: 2636 seconds
#
# Revision: 1
# Processed by: cddbd v1.5.2PL0 Copyright (c) Steve Scherf et al.
# Submitted via: CDex 1.51
#
DISCID=b90a4a0d
DTITLE=Nate Farrar - Shell Shocked
DYEAR=2006
DGENRE=Country
TTITLE0=Let Me Down
TTITLE1=Moonlight's just a Memory
TTITLE2=Rottin' Playground
TTITLE3=Let Me Sleep
TTITLE4=Money and Drinkin
TTITLE5=Ballad for a Soldier
TTITLE6=Dry Stone jail
TTITLE7=Shell Shocked
TTITLE8=Til the last Dream is gone
TTITLE9=Scarsdale
TTITLE10=Not a Fool in Love
TTITLE11=Tomorrow's a Mess
TTITLE12=As the Rain Comes Down
EXTD=YEAR: 2006
EXTT0=
EXTT1=
EXTT2=
EXTT3=
EXTT4=
EXTT5=
EXTT6=
EXTT7=
EXTT8=
EXTT9=
EXTT10=
EXTT11=
EXTT12=
PLAYORDER=
